<svg width="142" height="24" viewBox="0 0 142 24" fill="none" xmlns="http://www.w3.org/2000/svg">
<path d="M0.352273 3.58807V0.545454H14.6875V3.58807H9.34375V18H5.69602V3.58807H0.352273ZM21.0476 18.2557C19.701 18.2557 18.5419 17.983 17.5703 17.4375C16.6044 16.8864 15.8601 16.108 15.3374 15.1023C14.8146 14.0909 14.5533 12.8949 14.5533 11.5142C14.5533 10.1676 14.8146 8.9858 15.3374 7.96875C15.8601 6.9517 16.5959 6.15909 17.5447 5.59091C18.4993 5.02273 19.6186 4.73864 20.9027 4.73864C21.7663 4.73864 22.5703 4.87784 23.3146 5.15625C24.0646 5.42898 24.718 5.84091 25.2749 6.39205C25.8374 6.94318 26.2749 7.63636 26.5874 8.47159C26.8999 9.30114 27.0561 10.2727 27.0561 11.3864V12.3835H16.0021V10.1335H23.6385C23.6385 9.6108 23.5249 9.14773 23.2976 8.74432C23.0703 8.34091 22.755 8.02557 22.3516 7.7983C21.9538 7.56534 21.4908 7.44886 20.9624 7.44886C20.4112 7.44886 19.9226 7.5767 19.4964 7.83239C19.076 8.08239 18.7464 8.42045 18.5078 8.84659C18.2692 9.26705 18.147 9.7358 18.1413 10.2528V12.392C18.1413 13.0398 18.2607 13.5994 18.4993 14.071C18.7436 14.5426 19.0874 14.9062 19.5305 15.1619C19.9737 15.4176 20.4993 15.5455 21.1072 15.5455C21.5107 15.5455 21.88 15.4886 22.2152 15.375C22.5504 15.2614 22.8374 15.0909 23.076 14.8636C23.3146 14.6364 23.4964 14.358 23.6214 14.0284L26.9794 14.25C26.8089 15.0568 26.4595 15.7614 25.9311 16.3636C25.4084 16.9602 24.7322 17.4261 23.9027 17.7614C23.0788 18.0909 22.1271 18.2557 21.0476 18.2557ZM35.3402 18.2557C33.9993 18.2557 32.8459 17.9716 31.88 17.4034C30.9197 16.8295 30.1811 16.0341 29.6641 15.017C29.1527 14 28.897 12.8295 28.897 11.5057C28.897 10.1648 29.1555 8.98864 29.6726 7.97727C30.1953 6.96023 30.9368 6.16761 31.897 5.59943C32.8572 5.02557 33.9993 4.73864 35.3232 4.73864C36.4652 4.73864 37.4652 4.94602 38.3232 5.36079C39.1811 5.77557 39.8601 6.35795 40.3601 7.10795C40.8601 7.85795 41.1357 8.73864 41.1868 9.75H37.7607C37.6641 9.09659 37.4084 8.57102 36.9936 8.1733C36.5845 7.76989 36.0476 7.56818 35.3828 7.56818C34.8203 7.56818 34.3288 7.72159 33.9084 8.02841C33.4936 8.32955 33.1697 8.76989 32.9368 9.34943C32.7038 9.92898 32.5874 10.6307 32.5874 11.4545C32.5874 12.2898 32.701 13 32.9283 13.5852C33.1612 14.1705 33.4879 14.6165 33.9084 14.9233C34.3288 15.2301 34.8203 15.3835 35.3828 15.3835C35.7976 15.3835 36.1697 15.2983 36.4993 15.1278C36.8345 14.9574 37.1101 14.7102 37.326 14.3864C37.5476 14.0568 37.6925 13.6619 37.7607 13.2017H41.1868C41.13 14.2017 40.8572 15.0824 40.3686 15.8438C39.8857 16.5994 39.218 17.1903 38.3658 17.6165C37.5135 18.0426 36.505 18.2557 35.3402 18.2557ZM47.142 10.4318V18H43.5114V0.545454H47.0398V7.21875H47.1932C47.4886 6.44602 47.9659 5.84091 48.625 5.40341C49.2841 4.96023 50.1108 4.73864 51.1051 4.73864C52.0142 4.73864 52.8068 4.9375 53.483 5.33523C54.1648 5.72727 54.6932 6.29261 55.0682 7.03125C55.4489 7.7642 55.6364 8.64205 55.6307 9.66477V18H52V10.3125C52.0057 9.50568 51.8011 8.87784 51.3864 8.42898C50.9773 7.98011 50.4034 7.75568 49.6648 7.75568C49.1705 7.75568 48.733 7.8608 48.3523 8.07102C47.9773 8.28125 47.6818 8.58807 47.4659 8.99148C47.2557 9.3892 47.1477 9.86932 47.142 10.4318ZM62.1186 10.4318V18H58.4879V4.90909H61.9482V7.21875H62.1016C62.3913 6.45739 62.8771 5.85511 63.5589 5.41193C64.2408 4.96307 65.0675 4.73864 66.0391 4.73864C66.9482 4.73864 67.7408 4.9375 68.4169 5.33523C69.093 5.73295 69.6186 6.30114 69.9936 7.03977C70.3686 7.77273 70.5561 8.64773 70.5561 9.66477V18H66.9254V10.3125C66.9311 9.51136 66.7266 8.88636 66.3118 8.4375C65.897 7.98295 65.326 7.75568 64.5987 7.75568C64.1101 7.75568 63.6783 7.8608 63.3033 8.07102C62.9339 8.28125 62.6442 8.58807 62.4339 8.99148C62.2294 9.3892 62.1243 9.86932 62.1186 10.4318ZM79.3324 18.2557C78.0085 18.2557 76.8636 17.9744 75.8977 17.4119C74.9375 16.8437 74.196 16.054 73.6733 15.0426C73.1506 14.0256 72.8892 12.8466 72.8892 11.5057C72.8892 10.1534 73.1506 8.97159 73.6733 7.96023C74.196 6.94318 74.9375 6.15341 75.8977 5.59091C76.8636 5.02273 78.0085 4.73864 79.3324 4.73864C80.6562 4.73864 81.7983 5.02273 82.7585 5.59091C83.7244 6.15341 84.4688 6.94318 84.9915 7.96023C85.5142 8.97159 85.7756 10.1534 85.7756 11.5057C85.7756 12.8466 85.5142 14.0256 84.9915 15.0426C84.4688 16.054 83.7244 16.8437 82.7585 17.4119C81.7983 17.9744 80.6562 18.2557 79.3324 18.2557ZM79.3494 15.4432C79.9517 15.4432 80.4545 15.2727 80.858 14.9318C81.2614 14.5852 81.5653 14.1136 81.7699 13.517C81.9801 12.9205 82.0852 12.2415 82.0852 11.4801C82.0852 10.7188 81.9801 10.0398 81.7699 9.44318C81.5653 8.84659 81.2614 8.375 80.858 8.02841C80.4545 7.68182 79.9517 7.50852 79.3494 7.50852C78.7415 7.50852 78.2301 7.68182 77.8153 8.02841C77.4063 8.375 77.0966 8.84659 76.8864 9.44318C76.6818 10.0398 76.5795 10.7188 76.5795 11.4801C76.5795 12.2415 76.6818 12.9205 76.8864 13.517C77.0966 14.1136 77.4063 14.5852 77.8153 14.9318C78.2301 15.2727 78.7415 15.4432 79.3494 15.4432ZM91.767 0.545454V18H88.1364V0.545454H91.767ZM100.59 18.2557C99.2663 18.2557 98.1214 17.9744 97.1555 17.4119C96.1953 16.8437 95.4538 16.054 94.9311 15.0426C94.4084 14.0256 94.147 12.8466 94.147 11.5057C94.147 10.1534 94.4084 8.97159 94.9311 7.96023C95.4538 6.94318 96.1953 6.15341 97.1555 5.59091C98.1214 5.02273 99.2663 4.73864 100.59 4.73864C101.914 4.73864 103.056 5.02273 104.016 5.59091C104.982 6.15341 105.727 6.94318 106.249 7.96023C106.772 8.97159 107.033 10.1534 107.033 11.5057C107.033 12.8466 106.772 14.0256 106.249 15.0426C105.727 16.054 104.982 16.8437 104.016 17.4119C103.056 17.9744 101.914 18.2557 100.59 18.2557ZM100.607 15.4432C101.21 15.4432 101.712 15.2727 102.116 14.9318C102.519 14.5852 102.823 14.1136 103.028 13.517C103.238 12.9205 103.343 12.2415 103.343 11.4801C103.343 10.7188 103.238 10.0398 103.028 9.44318C102.823 8.84659 102.519 8.375 102.116 8.02841C101.712 7.68182 101.21 7.50852 100.607 7.50852C99.9993 7.50852 99.4879 7.68182 99.0732 8.02841C98.6641 8.375 98.3544 8.84659 98.1442 9.44318C97.9396 10.0398 97.8374 10.7188 97.8374 11.4801C97.8374 12.2415 97.9396 12.9205 98.1442 13.517C98.3544 14.1136 98.6641 14.5852 99.0732 14.9318C99.4879 15.2727 99.9993 15.4432 100.607 15.4432ZM115.292 23.1818C114.116 23.1818 113.107 23.0199 112.266 22.696C111.431 22.3778 110.766 21.9432 110.272 21.392C109.778 20.8409 109.457 20.2216 109.309 19.5341L112.667 19.0824C112.769 19.3438 112.931 19.5881 113.153 19.8153C113.374 20.0426 113.667 20.2244 114.031 20.3608C114.4 20.5028 114.849 20.5739 115.377 20.5739C116.167 20.5739 116.817 20.3807 117.329 19.9943C117.846 19.6136 118.104 18.9744 118.104 18.0767V15.6818H117.951C117.792 16.0455 117.553 16.3892 117.235 16.7131C116.917 17.0369 116.508 17.3011 116.008 17.5057C115.508 17.7102 114.911 17.8125 114.218 17.8125C113.235 17.8125 112.34 17.5852 111.533 17.1307C110.732 16.6705 110.093 15.9687 109.616 15.0256C109.144 14.0767 108.908 12.8778 108.908 11.429C108.908 9.94602 109.15 8.70739 109.633 7.71307C110.116 6.71875 110.758 5.97443 111.559 5.48011C112.366 4.9858 113.249 4.73864 114.21 4.73864C114.942 4.73864 115.556 4.86364 116.05 5.11364C116.545 5.35795 116.942 5.66477 117.244 6.03409C117.55 6.39773 117.786 6.75568 117.951 7.10795H118.087V4.90909H121.692V18.1278C121.692 19.2415 121.42 20.1733 120.874 20.9233C120.329 21.6733 119.573 22.2358 118.607 22.6108C117.647 22.9915 116.542 23.1818 115.292 23.1818ZM115.369 15.0852C115.954 15.0852 116.448 14.9403 116.852 14.6506C117.261 14.3551 117.573 13.9347 117.789 13.3892C118.011 12.8381 118.121 12.179 118.121 11.4119C118.121 10.6449 118.013 9.98011 117.798 9.41761C117.582 8.84943 117.269 8.40909 116.86 8.09659C116.451 7.78409 115.954 7.62784 115.369 7.62784C114.772 7.62784 114.269 7.78977 113.86 8.11364C113.451 8.43182 113.141 8.875 112.931 9.44318C112.721 10.0114 112.616 10.6676 112.616 11.4119C112.616 12.1676 112.721 12.821 112.931 13.3722C113.147 13.9176 113.457 14.3409 113.86 14.642C114.269 14.9375 114.772 15.0852 115.369 15.0852ZM123.542 0.545454H128.826L132.235 7.63636H132.371L135.781 0.545454H141.065L134.656 12.5114V18H129.951V12.5114L123.542 0.545454Z" fill="#EBEBEB"/>
</svg>
