<svg width="113" height="20" viewBox="0 0 113 20" fill="none" xmlns="http://www.w3.org/2000/svg">
<path d="M0.965909 2.51705V0.954545H11.875V2.51705H7.30114V15.5H5.53977V2.51705H0.965909ZM17.358 15.7273C16.3068 15.7273 15.4001 15.4953 14.6378 15.0312C13.8802 14.5625 13.2955 13.9091 12.8835 13.071C12.4763 12.2282 12.2727 11.2481 12.2727 10.1307C12.2727 9.01326 12.4763 8.02841 12.8835 7.17614C13.2955 6.31913 13.8684 5.65152 14.6023 5.1733C15.3409 4.69034 16.2027 4.44886 17.1875 4.44886C17.7557 4.44886 18.3168 4.54356 18.8707 4.73295C19.4247 4.92235 19.929 5.23011 20.3835 5.65625C20.8381 6.07765 21.2003 6.63636 21.4702 7.33239C21.7401 8.02841 21.875 8.88542 21.875 9.90341V10.6136H13.4659V9.16477H20.1705C20.1705 8.54924 20.0473 8 19.8011 7.51705C19.5597 7.03409 19.214 6.65294 18.7642 6.37358C18.3191 6.09422 17.7936 5.95455 17.1875 5.95455C16.5199 5.95455 15.9422 6.12026 15.4545 6.4517C14.9716 6.77841 14.5999 7.20455 14.3395 7.73011C14.0791 8.25568 13.9489 8.81913 13.9489 9.42045V10.3864C13.9489 11.2102 14.0909 11.9086 14.375 12.4815C14.6638 13.0497 15.0639 13.483 15.5753 13.7812C16.0866 14.0748 16.6809 14.2216 17.358 14.2216C17.7983 14.2216 18.196 14.16 18.5511 14.0369C18.911 13.9091 19.2211 13.7197 19.4815 13.4688C19.742 13.2131 19.9432 12.8958 20.0852 12.517L21.7045 12.9716C21.5341 13.5208 21.2476 14.0038 20.8452 14.4205C20.4427 14.8324 19.9455 15.1544 19.3537 15.3864C18.7618 15.6136 18.0966 15.7273 17.358 15.7273ZM28.8565 15.7273C27.8338 15.7273 26.9531 15.4858 26.2145 15.0028C25.4759 14.5199 24.9077 13.8546 24.5099 13.0071C24.1122 12.1596 23.9134 11.1913 23.9134 10.1023C23.9134 8.99432 24.117 8.01657 24.5241 7.16903C24.9361 6.31676 25.509 5.65152 26.2429 5.1733C26.9815 4.69034 27.8433 4.44886 28.8281 4.44886C29.5952 4.44886 30.2865 4.59091 30.902 4.875C31.5175 5.15909 32.0218 5.55682 32.4148 6.06818C32.8078 6.57955 33.0516 7.17614 33.1463 7.85795H31.4702C31.3423 7.3608 31.0582 6.92045 30.6179 6.53693C30.1823 6.14867 29.5952 5.95455 28.8565 5.95455C28.2031 5.95455 27.6302 6.125 27.1378 6.46591C26.6501 6.80208 26.2689 7.27794 25.9943 7.89347C25.7244 8.50426 25.5895 9.22159 25.5895 10.0455C25.5895 10.8883 25.7221 11.6222 25.9872 12.2472C26.2571 12.8722 26.6359 13.3575 27.1236 13.7031C27.616 14.0488 28.1937 14.2216 28.8565 14.2216C29.2921 14.2216 29.6875 14.1458 30.0426 13.9943C30.3977 13.8428 30.6984 13.625 30.9446 13.3409C31.1908 13.0568 31.366 12.7159 31.4702 12.3182H33.1463C33.0516 12.9621 32.8172 13.5421 32.4432 14.0582C32.0739 14.5696 31.5838 14.9768 30.973 15.2798C30.367 15.5781 29.6615 15.7273 28.8565 15.7273ZM37.2727 8.9375V15.5H35.5966V0.954545H37.2727V6.29545H37.4148C37.6705 5.73201 38.054 5.28456 38.5653 4.95312C39.0814 4.61695 39.768 4.44886 40.625 4.44886C41.3684 4.44886 42.0194 4.59801 42.5781 4.89631C43.1368 5.18987 43.5701 5.64205 43.8778 6.25284C44.1903 6.8589 44.3466 7.63068 44.3466 8.56818V15.5H42.6705V8.68182C42.6705 7.81534 42.4455 7.14536 41.9957 6.67188C41.5507 6.19366 40.9328 5.95455 40.142 5.95455C39.5928 5.95455 39.1004 6.07055 38.6648 6.30256C38.2339 6.53456 37.893 6.87311 37.642 7.31818C37.3958 7.76326 37.2727 8.30303 37.2727 8.9375ZM49.0891 8.9375V15.5H47.413V4.59091H49.0323V6.29545H49.1744C49.43 5.74148 49.8183 5.2964 50.3391 4.96023C50.86 4.61932 51.5323 4.44886 52.3562 4.44886C53.0948 4.44886 53.7411 4.60038 54.2951 4.90341C54.8491 5.2017 55.2799 5.65625 55.5877 6.26705C55.8955 6.87311 56.0494 7.64015 56.0494 8.56818V15.5H54.3732V8.68182C54.3732 7.82481 54.1507 7.1572 53.7056 6.67898C53.2605 6.19602 52.6497 5.95455 51.8732 5.95455C51.3382 5.95455 50.86 6.07055 50.4386 6.30256C50.0219 6.53456 49.6928 6.87311 49.4513 7.31818C49.2099 7.76326 49.0891 8.30303 49.0891 8.9375ZM63.544 15.7273C62.5592 15.7273 61.6951 15.4929 60.9517 15.0241C60.2131 14.5554 59.6354 13.8996 59.2188 13.0568C58.8068 12.214 58.6009 11.2292 58.6009 10.1023C58.6009 8.96591 58.8068 7.97396 59.2188 7.12642C59.6354 6.27888 60.2131 5.62074 60.9517 5.15199C61.6951 4.68324 62.5592 4.44886 63.544 4.44886C64.5289 4.44886 65.3906 4.68324 66.1293 5.15199C66.8726 5.62074 67.4503 6.27888 67.8622 7.12642C68.2789 7.97396 68.4872 8.96591 68.4872 10.1023C68.4872 11.2292 68.2789 12.214 67.8622 13.0568C67.4503 13.8996 66.8726 14.5554 66.1293 15.0241C65.3906 15.4929 64.5289 15.7273 63.544 15.7273ZM63.544 14.2216C64.2921 14.2216 64.9077 14.0298 65.3906 13.6463C65.8736 13.2628 66.2311 12.7585 66.4631 12.1335C66.6951 11.5085 66.8111 10.8314 66.8111 10.1023C66.8111 9.37311 66.6951 8.69366 66.4631 8.06392C66.2311 7.43419 65.8736 6.92519 65.3906 6.53693C64.9077 6.14867 64.2921 5.95455 63.544 5.95455C62.7959 5.95455 62.1804 6.14867 61.6974 6.53693C61.2145 6.92519 60.857 7.43419 60.625 8.06392C60.393 8.69366 60.277 9.37311 60.277 10.1023C60.277 10.8314 60.393 11.5085 60.625 12.1335C60.857 12.7585 61.2145 13.2628 61.6974 13.6463C62.1804 14.0298 62.7959 14.2216 63.544 14.2216ZM72.7219 0.954545V15.5H71.0458V0.954545H72.7219ZM80.2237 15.7273C79.2389 15.7273 78.3748 15.4929 77.6314 15.0241C76.8928 14.5554 76.3151 13.8996 75.8984 13.0568C75.4865 12.214 75.2805 11.2292 75.2805 10.1023C75.2805 8.96591 75.4865 7.97396 75.8984 7.12642C76.3151 6.27888 76.8928 5.62074 77.6314 5.15199C78.3748 4.68324 79.2389 4.44886 80.2237 4.44886C81.2086 4.44886 82.0703 4.68324 82.8089 5.15199C83.5523 5.62074 84.13 6.27888 84.5419 7.12642C84.9586 7.97396 85.1669 8.96591 85.1669 10.1023C85.1669 11.2292 84.9586 12.214 84.5419 13.0568C84.13 13.8996 83.5523 14.5554 82.8089 15.0241C82.0703 15.4929 81.2086 15.7273 80.2237 15.7273ZM80.2237 14.2216C80.9718 14.2216 81.5874 14.0298 82.0703 13.6463C82.5533 13.2628 82.9107 12.7585 83.1428 12.1335C83.3748 11.5085 83.4908 10.8314 83.4908 10.1023C83.4908 9.37311 83.3748 8.69366 83.1428 8.06392C82.9107 7.43419 82.5533 6.92519 82.0703 6.53693C81.5874 6.14867 80.9718 5.95455 80.2237 5.95455C79.4756 5.95455 78.8601 6.14867 78.3771 6.53693C77.8942 6.92519 77.5367 7.43419 77.3047 8.06392C77.0727 8.69366 76.9567 9.37311 76.9567 10.1023C76.9567 10.8314 77.0727 11.5085 77.3047 12.1335C77.5367 12.7585 77.8942 13.2628 78.3771 13.6463C78.8601 14.0298 79.4756 14.2216 80.2237 14.2216ZM92.1289 19.8182C91.3192 19.8182 90.6232 19.714 90.0408 19.5057C89.4585 19.3021 88.9731 19.0322 88.5849 18.696C88.2013 18.3646 87.896 18.0095 87.6687 17.6307L89.0039 16.6932C89.1554 16.892 89.3472 17.1193 89.5792 17.375C89.8112 17.6354 90.1284 17.8603 90.5309 18.0497C90.9381 18.2438 91.4708 18.3409 92.1289 18.3409C93.0096 18.3409 93.7364 18.1278 94.3093 17.7017C94.8822 17.2756 95.1687 16.608 95.1687 15.6989V13.483H95.0266C94.9035 13.6818 94.7283 13.928 94.5011 14.2216C94.2785 14.5104 93.9566 14.7685 93.5352 14.9957C93.1185 15.2183 92.555 15.3295 91.8448 15.3295C90.9641 15.3295 90.1734 15.1212 89.4727 14.7045C88.7766 14.2879 88.225 13.6818 87.8178 12.8864C87.4154 12.0909 87.2141 11.125 87.2141 9.98864C87.2141 8.87121 87.4106 7.8982 87.8036 7.0696C88.1966 6.23627 88.7435 5.59233 89.4442 5.13778C90.145 4.6785 90.9547 4.44886 91.8732 4.44886C92.5835 4.44886 93.1469 4.56723 93.5636 4.80398C93.985 5.03598 94.3069 5.30114 94.5295 5.59943C94.7567 5.89299 94.9319 6.13447 95.055 6.32386H95.2255V4.59091H96.8448V15.8125C96.8448 16.75 96.6317 17.5123 96.2056 18.0994C95.7842 18.6913 95.216 19.1245 94.5011 19.3991C93.7908 19.6785 93.0001 19.8182 92.1289 19.8182ZM92.0721 13.8239C92.7444 13.8239 93.3126 13.67 93.7766 13.3622C94.2406 13.0545 94.5934 12.6117 94.8349 12.0341C95.0763 11.4564 95.1971 10.7652 95.1971 9.96023C95.1971 9.17424 95.0787 8.48059 94.842 7.87926C94.6052 7.27794 94.2549 6.80682 93.7908 6.46591C93.3268 6.125 92.7539 5.95455 92.0721 5.95455C91.3619 5.95455 90.77 6.13447 90.2965 6.49432C89.8278 6.85417 89.475 7.33712 89.2383 7.94318C89.0063 8.54924 88.8903 9.22159 88.8903 9.96023C88.8903 10.7178 89.0086 11.3878 89.2454 11.9702C89.4869 12.5478 89.842 13.0024 90.3107 13.3338C90.7842 13.6605 91.3713 13.8239 92.0721 13.8239ZM98.7908 0.954545H102.235L105.552 7.21875H105.694L109.011 0.954545H112.456L107.15 10.358V15.5H104.096V10.358L98.7908 0.954545Z" fill="white"/>
</svg>
